<svg width="18" height="18" viewBox="0 0 18 18" fill="none" xmlns="http://www.w3.org/2000/svg">
<path d="M12.3333 5.66668V2.75055C12.3333 2.05744 12.3333 1.71088 12.1873 1.4979C12.0598 1.31183 11.8622 1.18542 11.6398 1.14758C11.3852 1.10426 11.0706 1.24949 10.4413 1.53994L3.04918 4.95167C2.48792 5.21071 2.20729 5.34023 2.00175 5.54111C1.82005 5.71869 1.68135 5.93547 1.59625 6.17487C1.5 6.44567 1.5 6.75474 1.5 7.3729V11.5M12.75 11.0833H12.7583M1.5 8.33334L1.5 13.8333C1.5 14.7668 1.5 15.2335 1.68166 15.59C1.84144 15.9036 2.09641 16.1586 2.41002 16.3184C2.76654 16.5 3.23325 16.5 4.16667 16.5H13.8333C14.7668 16.5 15.2335 16.5 15.59 16.3184C15.9036 16.1586 16.1586 15.9036 16.3183 15.59C16.5 15.2335 16.5 14.7668 16.5 13.8333V8.33334C16.5 7.39992 16.5 6.93321 16.3183 6.57669C16.1586 6.26309 15.9036 6.00812 15.59 5.84833C15.2335 5.66668 14.7668 5.66668 13.8333 5.66668L4.16667 5.66668C3.23325 5.66668 2.76654 5.66668 2.41002 5.84833C2.09641 6.00812 1.84144 6.26309 1.68166 6.57669C1.5 6.93321 1.5 7.39992 1.5 8.33334ZM13.1667 11.0833C13.1667 11.3135 12.9801 11.5 12.75 11.5C12.5199 11.5 12.3333 11.3135 12.3333 11.0833C12.3333 10.8532 12.5199 10.6667 12.75 10.6667C12.9801 10.6667 13.1667 10.8532 13.1667 11.0833Z" stroke="#A4A7AE" stroke-width="1.67" stroke-linecap="round" stroke-linejoin="round"/>
</svg>
