<svg width="20" height="19" viewBox="0 0 20 19" fill="none" xmlns="http://www.w3.org/2000/svg">
<path d="M3.33333 10.6667L4.64554 15.9155C4.68244 16.0631 4.70089 16.1369 4.72272 16.2013C4.93597 16.8309 5.50293 17.2736 6.16543 17.3278C6.23325 17.3333 6.30933 17.3333 6.46149 17.3333C6.65203 17.3333 6.7473 17.3333 6.82756 17.3255C7.62083 17.2486 8.24861 16.6208 8.32555 15.8275C8.33333 15.7473 8.33333 15.652 8.33333 15.4615V3.58332M15.4167 10.25C17.0275 10.25 18.3333 8.94415 18.3333 7.33332C18.3333 5.72249 17.0275 4.41665 15.4167 4.41665M8.54166 3.58332H5.41666C3.3456 3.58332 1.66666 5.26225 1.66666 7.33332C1.66667 9.40439 3.3456 11.0833 5.41666 11.0833H8.54167C10.0137 11.0833 11.8144 11.8724 13.2036 12.6297C14.014 13.0715 14.4192 13.2924 14.6846 13.2599C14.9307 13.2297 15.1168 13.1192 15.2611 12.9176C15.4167 12.7001 15.4167 12.265 15.4167 11.3947V3.27189C15.4167 2.40165 15.4167 1.96653 15.2611 1.74906C15.1168 1.54741 14.9307 1.4369 14.6846 1.40676C14.4192 1.37426 14.014 1.59515 13.2036 2.03695C11.8144 2.79425 10.0137 3.58332 8.54166 3.58332Z" stroke="#A4A7AE" stroke-width="1.67" stroke-linecap="round" stroke-linejoin="round"/>
</svg>
