<svg width="20" height="16" viewBox="0 0 20 16" fill="none" xmlns="http://www.w3.org/2000/svg">
<path d="M4.16667 6.33334V11.3426C4.16667 11.6418 4.16667 11.7913 4.21221 11.9234C4.25249 12.0401 4.31822 12.1465 4.40465 12.2347C4.50239 12.3345 4.63617 12.4014 4.90372 12.5352L9.40372 14.7852C9.62235 14.8945 9.73167 14.9492 9.84634 14.9707C9.94789 14.9897 10.0521 14.9897 10.1537 14.9707C10.2683 14.9492 10.3777 14.8945 10.5963 14.7852L15.0963 12.5352C15.3638 12.4014 15.4976 12.3345 15.5954 12.2347C15.6818 12.1465 15.7475 12.0401 15.7878 11.9234C15.8333 11.7913 15.8333 11.6418 15.8333 11.3426V6.33334M1.66667 5.08334L9.70186 1.06574C9.81118 1.01108 9.86584 0.983752 9.92317 0.972996C9.97395 0.963469 10.0261 0.963469 10.0768 0.972996C10.1342 0.983752 10.1888 1.01108 10.2981 1.06574L18.3333 5.08334L10.2981 9.10093C10.1888 9.15559 10.1342 9.18292 10.0768 9.19368C10.0261 9.20321 9.97395 9.20321 9.92317 9.19368C9.86584 9.18292 9.81118 9.15559 9.70186 9.10093L1.66667 5.08334Z" stroke="#A4A7AE" stroke-width="1.67" stroke-linecap="round" stroke-linejoin="round"/>
</svg>
