<svg width="21" height="21" viewBox="0 0 21 21" fill="none" xmlns="http://www.w3.org/2000/svg">
<path d="M7 9.37305L10 12.373L20 2.37305M14 1.37305H5.8C4.11984 1.37305 3.27976 1.37305 2.63803 1.70003C2.07354 1.98765 1.6146 2.44659 1.32698 3.01108C1 3.65281 1 4.49289 1 6.17305V14.573C1 16.2532 1 17.0933 1.32698 17.735C1.6146 18.2995 2.07354 18.7584 2.63803 19.0461C3.27976 19.373 4.11984 19.373 5.8 19.373H14.2C15.8802 19.373 16.7202 19.373 17.362 19.0461C17.9265 18.7584 18.3854 18.2995 18.673 17.735C19 17.0933 19 16.2532 19 14.573V10.373" stroke="#D6BBFB" stroke-width="1.66667" stroke-linecap="round" stroke-linejoin="round"/>
</svg>
